<svg width="969" height="948" viewBox="0 0 969 948" fill="none" xmlns="http://www.w3.org/2000/svg">
<path d="M942.169 901.86C935.144 901.485 927.744 903.64 922.874 908.979C919.502 912.444 917.16 916.659 913.414 919.75C912.571 920.406 911.728 920.874 910.791 921.342C909.386 921.904 908.262 922.185 906.67 922.185C901.987 922.466 897.304 921.436 893.557 918.532C891.965 917.221 890.466 915.629 889.155 914.036C889.155 914.036 888.874 913.755 888.874 913.662C888.218 912.725 887.562 911.882 886.907 910.945C872.202 887.529 867.893 846.13 898.24 797.143C959.122 702.261 984.224 539.286 899.177 443.561C891.965 434.569 890.56 424.828 890.653 420.426C891.684 383.335 880.538 347.461 859.651 320.767C856.841 317.395 858.152 313.18 861.898 310.932C895.618 288.265 945.634 256.045 943.761 210.337C943.386 203.031 941.419 195.538 936.736 189.731C930.835 181.676 920.532 179.521 911.072 183.174C893.463 189.169 891.871 207.808 893.276 223.731C893.744 230.381 894.868 237.031 894.494 243.775C893.463 263.913 882.13 282.833 865.739 294.354C862.086 296.883 858.152 299.318 854.031 301.659C851.127 303.439 843.821 303.814 839.419 299.599C810.664 274.872 771.793 261.478 730.113 261.665C669.325 260.073 616.592 306.905 584.184 359.638L621.275 214.833C639.165 224.012 657.898 230.662 678.316 233.097C706.509 236.657 739.105 225.417 760.179 206.497C760.179 206.497 760.273 206.497 760.273 206.403C768.141 199.097 774.791 188.888 773.011 177.742C770.951 163.411 757.182 153.951 743.039 156.199C733.859 157.604 726.179 163.598 721.121 171.185C714.003 181.956 711.661 195.163 703.981 205.466C693.771 219.141 674.851 221.764 659.115 217.549C647.126 213.99 635.606 209.025 624.366 203.031L650.124 102.248C659.865 65.5318 688.901 32.3747 706.978 53.5428L819.656 180.645L968.395 80.2371L955.001 63.2839C938.235 74.711 915.943 73.025 900.769 59.5373C849.347 14.0165 788.278 -15.2067 724.774 12.5179C724.774 12.5179 688.432 26.4738 622.961 61.9726C590.834 79.3941 560.581 106.369 535.572 138.684C498.762 106.931 443.219 68.1544 407.908 51.7632C422.145 54.2921 434.977 56.3527 447.153 57.383C483.308 60.8486 536.79 69.6531 558.333 32.1874C561.705 25.5373 563.578 16.9201 559.738 10.0826C554.961 2.6831 545.313 -1.15709 536.696 0.528863C522.085 3.99444 515.247 19.9173 504.569 29.1901C490.239 42.7714 472.349 47.3609 452.96 46.1433C349.836 35.8402 281.836 -3.77974 175.152 53.1681C174.684 53.3555 174.309 53.6365 173.841 53.8238V53.9175C146.491 68.8101 121.295 88.7606 100.314 111.896C113.615 60.474 95.3502 11.675 50.0167 1.27822C41.9616 -0.501398 33.6255 -0.40778 25.5703 1.46551C13.7686 4.18177 4.12123 15.7961 5.61985 28.2535C6.74383 38.8375 15.9229 45.956 26.3197 46.0497C33.3445 46.4243 40.744 44.2701 45.6145 38.9312C48.9864 35.4656 51.328 31.2507 55.0746 28.1598C55.9175 27.5042 56.7605 27.0359 57.6972 26.5676C59.1021 26.0056 60.2261 25.7246 61.8184 25.7246C66.5016 25.4436 71.1848 26.4739 74.9314 29.3775C76.5237 30.6888 78.0223 32.281 79.3336 33.8733C79.3336 33.8733 79.6146 34.1543 79.6146 34.248C80.2703 35.1846 80.9259 36.0276 81.5815 36.9643C96.2868 60.3803 100.595 101.78 70.2482 150.766C9.36643 245.648 -15.7356 408.624 69.3115 504.349C76.5237 513.341 77.9286 523.082 77.835 527.484C76.8047 564.575 87.9507 600.448 108.838 627.143C111.648 630.515 110.336 634.73 106.59 636.977C72.8708 659.644 22.8541 691.865 24.7274 737.573C25.102 744.879 27.069 752.372 31.7522 758.179C37.653 766.234 47.9561 768.388 57.4162 764.736C75.0251 758.741 76.6173 740.102 75.2124 724.179C74.7441 717.529 73.6201 710.879 73.9948 704.135C75.0251 683.997 86.3585 665.077 102.75 653.556C106.403 651.027 110.337 648.592 114.458 646.25C117.361 644.471 124.667 644.096 129.069 648.311C157.824 673.038 196.695 686.432 238.376 686.245C299.164 687.837 351.897 641.005 384.304 588.272L347.213 733.077C329.324 723.898 310.591 717.248 290.172 714.812C261.979 711.253 229.384 722.493 208.309 741.413C208.309 741.413 208.216 741.413 208.216 741.507C200.348 748.813 193.698 759.022 195.477 770.168C197.538 784.499 211.307 793.959 225.45 791.711C234.629 790.306 242.309 784.311 247.367 776.725C254.486 765.953 256.827 752.747 264.508 742.443C274.717 728.768 293.637 726.146 309.373 730.361C321.362 733.92 332.883 738.884 344.122 744.879L318.365 845.661C308.624 882.378 279.588 915.535 261.511 894.367L148.739 767.358L0 867.766L13.394 884.719C30.1599 873.292 52.452 874.978 67.6256 888.466C119.047 933.987 180.116 963.21 243.621 935.486C243.621 935.486 279.962 921.53 345.434 886.031C377.561 868.609 407.814 841.634 432.822 809.32C469.633 841.072 525.175 879.849 560.487 896.24C546.25 893.711 533.418 891.651 521.242 890.62C485.087 887.155 431.605 878.35 410.062 915.816C406.69 922.466 404.817 931.083 408.657 937.921C413.434 945.32 423.081 949.16 431.699 947.475C446.31 944.009 453.148 928.086 463.825 918.813C478.156 905.232 496.046 900.642 515.434 901.86C618.559 912.163 686.559 951.783 793.243 894.835C793.711 894.648 794.086 894.367 794.554 894.18V894.086C821.904 879.193 847.1 859.243 868.08 836.108C854.78 887.529 873.044 936.328 918.378 946.725C926.433 948.505 934.769 948.411 942.824 946.538C954.626 943.822 964.273 932.207 962.775 919.75C961.745 909.166 952.565 902.047 942.169 901.86ZM54.9809 27.8788C55.0746 27.7851 55.0746 27.8788 54.9809 27.8788V27.8788ZM885.97 450.492L886.157 449.836C886.626 448.525 887.843 448.431 888.593 449.181C916.598 481.682 934.114 520.646 939.827 562.327C942.637 591.738 930.086 630.889 898.334 631.358C892.246 630.889 886.626 627.236 884.003 621.429C883.629 620.399 883.254 619.181 883.067 618.057C882.786 616.184 883.16 614.217 883.909 612.531V612.625C883.909 612.625 883.91 612.531 884.003 612.531C884.003 612.531 884.003 612.531 884.003 612.625C884.191 612.25 884.191 612.25 884.097 612.344C889.342 601.572 901.05 593.33 900.863 580.311C900.395 563.076 884.191 557.831 870.422 565.605C863.116 569.82 858.339 577.407 855.904 585.369C852.157 596.608 854.686 612.063 862.367 623.677C878.29 648.873 915.943 649.529 934.395 625.644C936.924 622.553 939.265 619.181 941.232 615.435C934.676 721.275 856.747 812.785 749.782 797.799C685.997 789.557 639.727 750.686 634.294 689.898C634.013 681.749 641.413 681.749 646.283 686.058C692.647 727.551 777.32 758.741 821.435 714.438C856.372 676.972 835.579 622.085 789.964 601.198C738.168 574.784 656.867 584.9 629.986 640.162C627.457 645.033 624.085 647.562 620.151 643.066L619.027 641.848C598.14 616.84 580.156 587.429 565.17 553.897C586.151 573.848 614.999 591.457 644.597 583.308C652.746 581.06 660.801 576.751 665.484 569.539C671.198 560.828 669.231 549.401 660.333 543.688C634.856 528.514 617.809 565.137 577.721 547.528C566.669 542.658 557.302 533.947 552.525 522.801C550.746 517.93 548.966 512.966 547.28 507.908H676.162L694.52 439.814H570.79C596.548 414.244 635.699 384.459 673.54 374.437C741.353 353.268 816.659 383.147 866.863 426.982C875.854 434.288 875.386 445.34 873.606 451.054C865.645 476.718 846.257 499.572 822.466 510.812C820.873 511.467 819.188 511.936 817.314 512.217C815.722 512.404 814.13 512.404 812.537 512.217C810.945 511.936 809.446 511.561 807.948 510.999C806.449 510.343 805.044 509.5 803.733 508.47C795.678 502.007 793.898 491.704 789.215 482.993C783.314 471.192 770.857 461.357 757.088 464.354C738.262 468.382 736.201 493.39 744.631 507.533C750.625 517.462 761.865 523.644 772.636 527.016C820.686 542.096 874.075 497.98 885.97 450.492ZM639.352 647.936C645.721 632.763 657.991 619.931 675.132 611.126C722.432 584.9 813.755 601.01 826.306 661.143C829.397 677.534 824.526 693.644 812.725 706.383C801.953 717.997 784.625 724.085 763.926 724.085C718.967 722.868 680.471 701.7 643.192 667.606C639.914 663.953 636.261 657.209 639.352 647.936ZM848.598 325.637C868.268 349.897 878.945 381.836 878.945 416.305C878.758 420.426 876.791 420.426 874.356 417.99C837.827 385.583 789.028 362.354 738.262 356.359C770.95 347.742 805.7 337.907 836.984 323.39C839.981 322.359 842.885 319.268 848.598 325.637ZM567.699 423.891C580.063 382.023 634.201 272.811 730.956 273.185C768.984 273.185 804.108 285.268 830.427 307.186C833.143 309.621 833.424 312.15 829.959 313.742C778.818 337.439 715.595 347.836 665.016 364.789C629.33 375.28 592.52 402.63 566.762 427.263L567.699 423.891ZM78.116 159.945C103.312 119.763 138.436 85.857 180.023 63.4712C196.976 55.3224 221.984 46.8927 236.409 52.5125C238.095 53.2618 239.687 54.1985 241.185 55.3225C242.871 56.6338 244.37 58.2261 245.775 59.912C247.461 62.16 248.772 64.5952 249.896 67.1241C252.706 73.6806 253.081 80.7991 254.486 87.7303C255.703 93.4438 257.764 98.97 261.511 103.466C268.91 112.458 283.147 115.08 292.982 108.711C305.533 100.469 304.971 81.7358 297.29 70.4024C284.833 52.9808 263.852 44.4574 243.621 40.0551C311.153 24.9752 394.233 43.8955 420.927 109.46C422.426 114.331 423.362 119.014 422.988 124.166C422.8 128.1 421.489 132.783 419.991 136.342C409.313 162.474 376.718 174.463 369.224 197.411C367.539 203.125 368.007 209.587 370.161 215.114C373.72 223.824 382.431 229.163 391.517 230.194C400.04 231.224 408.657 227.384 414.839 221.67C421.489 215.582 425.61 207.059 428.982 198.816C437.225 178.772 440.316 156.761 438.536 135.124C437.037 106.931 421.957 79.3005 399.853 60.6613C433.385 75.6476 491.831 115.923 528.266 147.582C528.36 147.675 528.547 147.769 528.641 147.863C506.068 179.24 488.365 214.926 478.531 251.643L430.387 430.635C411.467 375.842 385.803 329.759 353.864 293.042C353.77 292.855 353.676 292.761 353.489 292.574C353.395 292.48 353.302 292.293 353.208 292.199C348.618 286.58 346.651 281.896 346.464 269.533C347.401 198.067 294.106 147.394 220.486 138.496C148.926 127.912 80.2703 166.221 46.0828 228.789C54.0443 203.968 64.9093 180.926 78.116 159.945ZM82.3309 497.23L82.1436 497.886C81.6752 499.197 80.4576 499.291 79.7083 498.542C51.7026 466.04 34.1874 427.076 28.4739 385.395C25.664 355.985 38.215 316.833 69.9672 316.365C76.0554 316.833 81.6752 320.486 84.2978 326.293C84.6725 327.324 85.0471 328.541 85.2345 329.665C85.5155 331.538 85.1408 333.505 84.3915 335.191V335.098C84.3915 335.098 84.3915 335.191 84.2978 335.191C84.2978 335.191 84.2978 335.191 84.2978 335.098C84.1105 335.472 84.1105 335.472 84.2042 335.379C78.959 346.15 67.2509 354.392 67.4383 367.412C67.9066 384.646 84.1105 389.891 97.8791 382.117C105.185 377.902 109.962 370.315 112.397 362.354C116.144 351.114 113.615 335.66 105.934 324.045C90.0113 298.85 52.3583 298.194 33.9065 322.078C31.3775 325.169 29.0359 328.541 27.069 332.288C33.6255 226.447 111.554 134.937 218.519 149.923C282.304 158.166 328.574 197.036 334.007 257.825C334.288 265.973 326.888 265.973 322.018 261.665C275.654 220.172 190.981 188.981 146.866 233.285C111.929 270.75 132.722 325.638 178.337 346.525C230.133 372.938 311.434 362.822 338.315 307.56C340.844 302.69 344.216 300.161 348.15 304.657L349.274 305.874C370.161 330.883 388.145 360.293 403.131 393.825C382.15 373.875 353.302 356.266 323.704 364.415C315.555 366.662 307.5 370.971 302.817 378.183C297.103 386.894 299.07 398.321 307.968 404.034C333.445 419.208 350.492 382.585 390.58 400.194C401.632 405.065 410.999 413.776 415.776 424.922C417.555 429.792 419.335 434.756 421.021 439.814H292.045L273.781 508.002H397.511C371.753 533.572 332.602 563.357 294.761 573.379C226.949 594.548 151.642 564.669 101.438 520.834C92.4466 513.528 92.9149 502.476 94.6945 496.762C102.656 471.098 122.045 448.244 145.835 437.004C147.428 436.349 149.113 435.88 150.987 435.599C152.579 435.412 154.171 435.412 155.764 435.599C157.356 435.88 158.855 436.255 160.353 436.817C161.852 437.473 163.257 438.316 164.568 439.346C172.623 445.809 174.403 456.112 179.086 464.823C184.987 476.624 197.444 486.459 211.213 483.462C230.039 479.434 232.1 454.426 223.67 440.283C217.676 430.354 206.436 424.172 195.665 420.8C147.615 405.627 94.2263 449.743 82.3309 497.23ZM328.949 299.693C322.58 314.866 310.31 327.698 293.169 336.503C245.869 362.729 154.546 346.618 141.995 286.486C138.904 270.095 143.775 253.984 155.576 241.246C166.348 229.632 183.676 223.543 204.375 223.543C249.334 224.761 287.83 245.929 325.109 280.023C328.387 283.77 332.04 290.513 328.949 299.693ZM119.703 622.085C100.033 597.826 89.3557 565.886 89.3557 531.418C89.543 527.297 91.51 527.297 93.9452 529.732C130.474 562.14 179.273 585.368 230.039 591.363C197.351 599.98 162.601 609.815 131.317 624.333C128.32 625.363 125.51 628.454 119.703 622.085ZM237.345 674.537C199.318 674.537 164.193 662.454 137.874 640.537C135.158 638.101 134.877 635.573 138.342 633.98C189.483 610.283 252.706 599.886 303.285 582.933C338.971 572.443 375.781 545.093 401.539 520.459L400.696 523.831C388.238 565.699 334.1 674.911 237.345 674.537ZM788.372 884.251C771.419 892.4 746.41 900.83 731.986 895.21C730.3 894.461 728.708 893.524 727.209 892.4C725.523 891.089 724.025 889.496 722.62 887.81C720.934 885.562 719.622 883.127 718.498 880.598C715.689 874.042 715.314 866.923 713.909 859.992C712.691 854.279 710.631 848.752 706.884 844.256C699.485 835.265 685.248 832.642 675.413 839.011C662.862 847.254 663.424 865.987 671.104 877.32C683.562 894.742 704.543 903.265 724.774 907.667C657.242 922.747 574.162 903.827 547.468 838.262C545.969 833.391 545.032 828.708 545.407 823.557C545.594 819.623 546.906 814.94 548.404 811.38C559.082 785.248 591.677 773.259 599.17 750.311C600.856 744.598 600.388 738.135 598.234 732.609C594.674 723.898 585.964 718.559 576.878 717.529C568.355 716.498 559.738 720.339 553.556 726.052C546.906 732.14 542.784 740.664 539.412 748.906C531.17 768.95 528.079 790.962 529.859 812.598C531.357 840.791 546.437 868.422 568.542 887.061C535.01 872.075 476.564 831.799 440.128 800.141C440.035 800.047 439.847 799.953 439.754 799.86C462.327 768.482 480.029 732.796 489.864 696.08L538.008 517.087C556.928 571.881 582.592 617.964 614.531 654.68C614.625 654.867 614.719 654.961 614.906 655.148C615 655.242 615.093 655.429 615.187 655.523C619.776 661.143 621.743 665.826 621.931 678.19C620.994 749.656 674.289 800.328 747.909 809.32C819.469 819.904 888.124 781.595 922.312 719.027C914.069 743.661 903.298 766.703 889.998 787.777C865.083 827.959 829.959 861.865 788.372 884.251ZM913.32 919.75C913.226 919.844 913.32 919.844 913.32 919.75V919.75Z" fill="#f5f5f7"/>
</svg>
